<?xml version="1.0" standalone="no"?>
<!DOCTYPE svg PUBLIC "-//W3C//DTD SVG 20010904//EN"
 "http://www.w3.org/TR/2001/REC-SVG-20010904/DTD/svg10.dtd">
<svg version="1.0" xmlns="http://www.w3.org/2000/svg"
 width="499.000000pt" height="499.000000pt" viewBox="0 0 499.000000 499.000000"
 preserveAspectRatio="xMidYMid meet">

<g transform="translate(0.000000,499.000000) scale(0.100000,-0.100000)"
fill="#000000" stroke="none">
<path d="M2755 4971 c-10 -31 -158 -83 -303 -106 -24 -4 -41 -9 -39 -12 5 -4
50 3 142 21 25 5 26 5 9 -3 -12 -5 -107 -26 -210 -46 -196 -37 -229 -43 -354
-70 l-76 -15 -2 -44 c-1 -42 0 -43 26 -40 26 4 26 3 -3 -6 -24 -8 -47 -36
-111 -137 -94 -149 -108 -158 -151 -91 -15 24 -28 45 -30 47 -1 2 -10 -2 -19
-10 -16 -13 -17 -11 -10 14 5 21 -2 41 -31 92 -21 36 -42 65 -47 65 -25 0
-152 -79 -185 -116 -112 -128 -20 -232 304 -344 65 -22 262 -79 438 -126 654
-174 850 -255 922 -378 77 -132 -35 -253 -345 -371 -86 -33 -219 -74 -590
-185 -268 -80 -538 -170 -675 -227 -60 -24 -112 -46 -114 -49 -2 -2 1 -10 8
-17 36 -45 69 -227 40 -227 -6 0 -8 -7 -5 -16 3 -8 -1 -28 -9 -43 -8 -16 -11
-32 -7 -37 4 -5 -1 -2 -10 5 -16 12 -18 11 -18 -8 0 -14 4 -20 12 -15 7 5 8 3
3 -6 -6 -10 -11 -9 -22 5 -7 11 -13 23 -13 29 0 5 -3 7 -6 4 -3 -4 2 -20 10
-37 12 -22 13 -32 4 -37 -7 -4 -8 -3 -4 4 4 7 2 12 -5 12 -6 0 -9 -8 -6 -20 3
-11 0 -18 -7 -17 -6 1 -10 -7 -9 -18 2 -17 1 -17 -9 3 -9 18 -9 25 0 31 7 4 8
12 2 21 -9 15 -11 14 -14 -12 -1 -7 -7 -12 -14 -11 -6 2 -9 -4 -6 -12 4 -8 10
-15 15 -15 5 0 8 -13 7 -29 -1 -16 -6 -27 -10 -25 -4 3 -8 0 -8 -5 0 -6 -21
-2 -51 9 -38 15 -55 18 -70 10 -10 -6 -19 -13 -19 -16 0 -2 8 -1 18 5 22 11
44 -10 31 -30 -7 -12 -14 -11 -42 4 -22 12 -48 17 -73 15 l-39 -4 33 -8 c18
-5 35 -13 38 -17 6 -10 -25 -7 -43 4 -6 4 -19 4 -29 0 -13 -5 -16 -3 -11 10 4
11 2 14 -8 11 -8 -3 -15 -13 -17 -21 -2 -13 -7 -12 -28 6 -17 14 -20 20 -10
21 13 0 13 1 0 10 -8 5 -18 10 -21 10 -10 0 -6 -54 4 -61 5 -4 4 -9 -1 -13 -6
-3 -13 3 -17 14 -3 11 -11 20 -16 20 -12 0 -12 -13 1 -28 6 -8 5 -8 -4 0 -8 7
-24 36 -35 63 -10 28 -24 49 -30 48 -6 -2 -8 3 -5 11 3 8 0 17 -7 22 -8 5 -10
3 -4 -6 5 -9 4 -11 -4 -6 -6 4 -8 12 -4 19 10 16 11 67 1 61 -4 -3 -9 5 -9 18
-1 16 -3 18 -6 6 -2 -9 1 -27 7 -39 13 -24 -2 -51 -15 -28 -6 8 -4 10 4 4 10
-6 11 -3 2 13 -6 12 -16 24 -22 27 -6 4 -14 16 -18 27 -7 19 -14 15 -75 -42
-128 -121 -236 -288 -286 -445 -31 -100 -38 -267 -15 -370 20 -92 89 -232 159
-325 76 -101 234 -251 369 -352 256 -190 393 -274 777 -473 568 -294 833 -437
912 -492 46 -32 52 -33 140 -33 l93 0 -50 32 c-110 69 -342 193 -785 418 -614
313 -861 458 -1098 649 -412 332 -542 705 -373 1067 51 109 102 184 180 267
42 45 68 64 74 58 7 -7 -8 -29 -42 -67 -190 -208 -275 -468 -227 -694 51 -235
206 -442 502 -667 218 -166 550 -356 1124 -643 327 -164 636 -328 728 -386
l52 -34 930 0 c512 0 930 2 930 5 0 7 -76 76 -170 153 -262 215 -591 422 -961
607 -74 37 -136 69 -138 71 -3 3 0 9 6 15 19 19 447 -199 700 -357 210 -131
418 -288 570 -428 l72 -67 62 3 63 3 -113 99 c-204 180 -493 385 -761 539 -47
28 -188 101 -315 165 -126 63 -232 116 -234 118 -2 2 19 41 48 86 93 148 115
202 119 298 7 142 -44 257 -151 342 -65 51 -116 73 -198 86 -86 13 -157 1
-246 -43 -85 -42 -142 -101 -187 -195 -29 -61 -31 -72 -31 -177 0 -108 -1
-113 -20 -106 -57 17 -536 233 -643 288 -262 137 -426 273 -493 410 -31 64
-34 77 -34 160 0 100 14 138 84 226 119 150 302 245 806 420 110 39 279 97
375 131 495 172 734 292 877 441 82 85 107 139 107 237 1 90 -24 151 -91 217
-43 44 -173 133 -192 133 -24 0 -9 -29 30 -55 59 -41 142 -135 169 -191 53
-110 22 -234 -83 -342 -147 -151 -372 -255 -1023 -475 -444 -151 -545 -188
-692 -258 -278 -132 -413 -267 -442 -444 -31 -188 71 -352 320 -517 154 -102
529 -288 913 -453 48 -20 87 -41 87 -46 0 -5 -3 -9 -7 -9 -4 0 -138 57 -298
126 -693 302 -916 446 -1023 663 -35 71 -37 80 -37 176 0 93 2 105 33 167 79
161 276 297 632 436 58 23 286 102 508 177 430 144 562 194 718 274 176 89
302 190 361 290 38 63 39 163 4 236 -25 51 -161 195 -185 195 -22 0 -166 -242
-166 -279 0 -21 -5 -31 -15 -31 -9 0 -28 -9 -43 -20 -47 -35 -63 -21 -173 152
-135 212 -156 272 -130 365 9 32 9 33 -32 43 -23 6 -67 18 -97 26 -30 8 -176
43 -325 79 -319 77 -460 116 -546 151 -172 70 -206 146 -96 219 50 33 196 87
267 99 29 5 31 4 10 -3 -14 -5 -51 -17 -84 -26 -32 -9 -57 -18 -55 -20 2 -2
72 14 154 35 83 21 141 40 130 40 -17 2 -16 3 5 10 14 4 34 8 45 8 16 0 15 -2
-5 -9 -41 -14 33 -2 265 42 386 74 560 134 624 215 27 34 28 64 1 64 -14 0
-20 -7 -20 -24 0 -34 -54 -84 -126 -117 -74 -34 -240 -82 -263 -76 -13 4 -12
5 3 6 32 2 219 62 266 86 59 30 100 72 100 101 0 24 -1 24 -115 24 -70 0 -115
-4 -115 -10 0 -5 -7 -10 -16 -10 -8 0 -12 5 -9 10 4 6 -36 10 -113 10 -115 0
-119 -1 -143 -26 -23 -25 -60 -44 -110 -58 -13 -4 4 7 37 24 64 31 90 60 54
60 -10 0 -21 -9 -25 -19z m269 -56 c-10 -8 -23 -14 -29 -14 -5 -1 1 8 15 19
14 10 27 17 29 14 3 -2 -4 -11 -15 -19z m-367 -21 c-3 -3 -12 -4 -19 -1 -8 3
-5 6 6 6 11 1 17 -2 13 -5z m-40 -10 c-3 -3 -12 -4 -19 -1 -8 3 -5 6 6 6 11 1
17 -2 13 -5z m283 -23 c-8 -5 -28 -11 -45 -14 l-30 -6 30 14 c34 16 72 21 45
6z m-233 -57 c-3 -3 -12 -4 -19 -1 -8 3 -5 6 6 6 11 1 17 -2 13 -5z m-40 -10
c-3 -3 -12 -4 -19 -1 -8 3 -5 6 6 6 11 1 17 -2 13 -5z m228 -45 c-38 -10 -81
-18 -95 -18 -14 0 4 7 39 14 35 8 69 16 75 19 6 2 20 4 31 4 11 0 -11 -8 -50
-19z m-438 5 c-3 -3 -12 -4 -19 -1 -8 3 -5 6 6 6 11 1 17 -2 13 -5z m-40 -10
c-3 -3 -12 -4 -19 -1 -8 3 -5 6 6 6 11 1 17 -2 13 -5z m346 -21 c-7 -2 -19 -2
-25 0 -7 3 -2 5 12 5 14 0 19 -2 13 -5z m-523 -13 c-14 -4 -34 -8 -45 -8 -16
0 -15 2 5 8 14 4 34 8 45 8 16 0 15 -2 -5 -8z m460 0 c-14 -4 -34 -8 -45 -8
-16 0 -15 2 5 8 14 4 34 8 45 8 16 0 15 -2 -5 -8z m-533 -16 c-3 -3 -12 -4
-19 -1 -8 3 -5 6 6 6 11 1 17 -2 13 -5z m456 -1 c-7 -2 -21 -2 -30 0 -10 3 -4
5 12 5 17 0 24 -2 18 -5z m-66 -9 c-3 -3 -12 -4 -19 -1 -8 3 -5 6 6 6 11 1 17
-2 13 -5z m-152 -34 c-16 -4 -39 -8 -50 -8 -16 0 -15 2 5 8 14 4 36 8 50 8 22
0 22 -1 -5 -8z m-715 -259 c17 -33 11 -48 -10 -22 -11 13 -20 27 -20 32 0 16
19 9 30 -10z m150 -121 c8 -5 11 -10 5 -10 -5 0 -17 5 -25 10 -8 5 -10 10 -5
10 6 0 17 -5 25 -10z m213 -72 c26 -6 47 -16 47 -21 0 -5 -6 -7 -12 -4 -7 2
-39 12 -70 21 -32 9 -58 19 -58 22 0 4 10 3 23 0 12 -4 43 -12 70 -18z m273
-73 c31 -8 60 -17 63 -21 8 -8 -63 6 -114 21 -57 18 -17 18 51 0z m319 -76
c57 -15 68 -19 63 -24 -2 -2 -33 4 -69 14 -67 20 -63 28 6 10z m330 -90 c28
-10 43 -18 34 -18 -22 -1 -122 29 -134 41 -12 12 29 2 100 -23z m463 -531 c-2
-6 -15 -18 -28 -27 -21 -14 -23 -14 -16 -1 16 27 28 40 38 40 5 0 8 -5 6 -12z
m-198 -156 c0 -13 -136 -75 -151 -70 -8 3 20 21 61 41 81 38 90 41 90 29z
m-320 -140 c0 -11 -182 -72 -194 -65 -5 4 31 21 80 39 94 35 114 39 114 26z
m-395 -131 c-8 -7 -74 -30 -192 -66 -7 -2 -15 0 -18 5 -3 5 36 22 87 38 95 31
140 39 123 23z m-417 -136 c-5 -6 -200 -75 -209 -75 -16 0 -9 18 9 23 9 3 55
19 101 35 47 17 89 28 94 25 4 -3 7 -7 5 -8z m-418 -160 c0 -6 -177 -95 -190
-95 -29 0 -1 23 73 59 74 36 117 49 117 36z m-471 -433 c1 -10 -3 -10 -21 0
-13 7 -24 14 -26 15 -2 0 5 11 15 22 l18 22 7 -23 c3 -13 6 -29 7 -36z m25 33
c-4 -8 -10 -15 -15 -15 -4 0 -6 7 -3 15 4 8 10 15 15 15 4 0 6 -7 3 -15z
m-254 -36 c0 -5 8 -9 18 -9 15 -1 15 -2 1 -13 -9 -7 -18 -19 -22 -27 -3 -8 -6
1 -7 20 l-1 35 -14 -25 c-15 -26 -19 -20 -9 17 6 21 34 22 34 2z m37 15 c-3
-3 -12 -4 -19 -1 -8 3 -5 6 6 6 11 1 17 -2 13 -5z m117 0 c9 -3 16 -15 16 -26
0 -10 5 -16 10 -13 6 4 8 11 5 16 -4 5 -2 9 3 9 5 0 9 -13 9 -29 0 -25 -2 -27
-14 -15 -8 8 -22 15 -31 16 -9 0 -28 2 -42 3 -48 4 -53 5 -46 12 4 4 23 6 43
4 25 -2 33 1 28 9 -4 6 -14 9 -22 6 -8 -3 -11 -1 -8 4 7 11 26 13 49 4z m-201
-54 l7 -35 -19 24 c-14 18 -16 27 -7 37 13 15 12 17 19 -26z m45 -65 l0 -24
-18 22 c-10 12 -15 27 -13 34 8 21 31 -3 31 -32z m128 6 c8 7 14 7 14 1 0 -5
-7 -15 -15 -22 -8 -7 -15 -10 -15 -7 0 3 -2 11 -3 19 -2 7 -2 9 1 5 2 -4 10
-3 18 4z m32 -21 c-7 -10 -14 -17 -17 -15 -4 4 18 35 25 35 2 0 -1 -9 -8 -20z
m-103 0 c3 -5 -1 -10 -10 -10 -9 0 -13 5 -10 10 3 6 8 10 10 10 2 0 7 -4 10
-10z m45 -38 c0 -4 -9 -8 -20 -9 -11 -1 -18 2 -15 8 7 11 35 12 35 1z m24 -1
c3 -4 -4 -17 -17 -27 -22 -19 -22 -19 -4 2 9 11 14 24 10 27 -3 4 -4 7 0 7 3
0 8 -4 11 -9z m-83 -19 c-7 -2 -18 1 -23 6 -8 8 -4 9 13 5 13 -4 18 -8 10 -11z
m26 -214 c9 -12 43 -109 43 -122 0 -3 -9 -6 -20 -6 -24 0 -40 33 -47 98 -6 42
5 55 24 30z m2360 -269 c57 -24 127 -88 155 -144 29 -56 36 -167 14 -233 -37
-112 -146 -192 -272 -200 -62 -4 -79 -1 -133 23 -77 35 -143 105 -167 177 -20
62 -15 177 10 227 38 72 116 140 186 162 52 15 157 10 207 -12z m-2132 -99
c62 -62 75 -81 62 -86 -28 -10 -185 134 -171 157 12 19 33 5 109 -71z m418
-300 c64 -36 116 -68 117 -71 0 -4 -8 -10 -17 -13 -11 -4 -58 17 -132 60 -135
77 -125 70 -116 84 10 16 20 12 148 -60z m543 -276 c76 -36 141 -68 143 -70 3
-2 0 -9 -7 -16 -8 -8 -21 -7 -49 5 -44 17 -256 118 -263 124 -5 4 20 23 31 23
3 0 69 -30 145 -66z m618 -289 c86 -42 156 -80 156 -86 0 -25 -38 -14 -184 56
-131 64 -155 79 -145 91 6 8 12 14 14 14 1 0 72 -34 159 -75z m704 -383 c57
-35 101 -69 99 -76 -8 -24 -39 -15 -109 32 -40 27 -106 68 -146 92 -80 47 -91
58 -71 71 15 9 61 -15 227 -119z"/>
<path d="M925 2180 c3 -5 8 -10 11 -10 2 0 4 5 4 10 0 6 -5 10 -11 10 -5 0 -7
-4 -4 -10z"/>
<path d="M2368 4843 c6 -2 18 -2 25 0 6 3 1 5 -13 5 -14 0 -19 -2 -12 -5z"/>
<path d="M2245 4825 c-33 -7 -51 -13 -40 -13 11 -1 49 5 85 12 36 8 54 14 40
14 -14 0 -52 -6 -85 -13z"/>
<path d="M2148 4803 c6 -2 18 -2 25 0 6 3 1 5 -13 5 -14 0 -19 -2 -12 -5z"/>
<path d="M2055 4790 c-27 -7 -27 -8 -5 -8 14 0 39 4 55 8 27 7 27 8 5 8 -14 0
-38 -4 -55 -8z"/>
<path d="M1960 4773 c-14 -3 -29 -8 -34 -13 -7 -7 62 4 89 15 13 5 -23 3 -55
-2z"/>
<path d="M1450 4618 c-55 -27 -102 -59 -136 -93 -63 -62 -74 -100 -48 -164 49
-124 298 -229 897 -381 473 -119 570 -151 687 -224 73 -46 103 -87 108 -151 3
-42 -1 -56 -25 -92 -79 -118 -241 -185 -903 -378 -256 -75 -412 -125 -595
-192 -160 -59 -175 -67 -159 -83 7 -7 54 6 150 44 195 75 326 119 739 245 198
60 405 126 459 146 209 75 350 163 377 233 32 83 -3 168 -94 226 -104 66 -242
112 -727 241 -179 48 -385 107 -458 131 -308 101 -448 201 -428 308 10 52 83
127 168 171 82 43 83 43 77 50 -3 2 -43 -14 -89 -37z"/>
<path d="M1976 4499 c-63 -74 -6 -131 197 -199 38 -12 70 -20 73 -18 2 2 -27
15 -64 28 -180 62 -235 120 -186 195 23 35 11 31 -20 -6z"/>
<path d="M2268 4273 c7 -3 16 -2 19 1 4 3 -2 6 -13 5 -11 0 -14 -3 -6 -6z"/>
<path d="M2338 4253 c7 -3 16 -2 19 1 4 3 -2 6 -13 5 -11 0 -14 -3 -6 -6z"/>
<path d="M2378 4243 c7 -3 16 -2 19 1 4 3 -2 6 -13 5 -11 0 -14 -3 -6 -6z"/>
<path d="M2418 4233 c7 -3 16 -2 19 1 4 3 -2 6 -13 5 -11 0 -14 -3 -6 -6z"/>
<path d="M2508 4213 c7 -3 16 -2 19 1 4 3 -2 6 -13 5 -11 0 -14 -3 -6 -6z"/>
<path d="M2548 4203 c7 -3 16 -2 19 1 4 3 -2 6 -13 5 -11 0 -14 -3 -6 -6z"/>
<path d="M2588 4193 c6 -2 18 -2 25 0 6 3 1 5 -13 5 -14 0 -19 -2 -12 -5z"/>
<path d="M2638 4183 c7 -3 16 -2 19 1 4 3 -2 6 -13 5 -11 0 -14 -3 -6 -6z"/>
<path d="M2678 4173 c7 -3 16 -2 19 1 4 3 -2 6 -13 5 -11 0 -14 -3 -6 -6z"/>
<path d="M2730 4160 c14 -4 34 -8 45 -8 16 0 15 2 -5 8 -14 4 -34 8 -45 8 -16
0 -15 -2 5 -8z"/>
<path d="M2808 4143 c7 -3 16 -2 19 1 4 3 -2 6 -13 5 -11 0 -14 -3 -6 -6z"/>
<path d="M2885 4124 c113 -34 204 -56 215 -52 6 2 -40 16 -102 31 -133 33
-184 43 -113 21z"/>
<path d="M938 2905 c-27 -9 -48 -20 -48 -26 0 -6 -4 -7 -10 -4 -5 3 -10 1 -10
-5 0 -6 -4 -9 -9 -5 -5 3 -12 1 -15 -4 -12 -19 24 -19 64 1 58 29 128 34 185
14 26 -8 51 -13 56 -10 5 3 17 0 26 -6 15 -9 14 -10 -7 -5 -22 6 -21 3 12 -24
21 -18 51 -60 68 -94 17 -34 28 -51 24 -38 -4 16 -3 21 5 17 6 -4 11 -2 11 4
0 6 -6 13 -14 16 -8 3 -13 11 -10 18 3 7 -2 19 -10 26 -9 7 -13 17 -9 23 3 5
1 7 -5 3 -6 -3 -13 3 -17 14 -3 11 -13 20 -21 20 -8 0 -12 4 -9 10 10 15 -105
63 -160 67 -27 1 -71 -4 -97 -12z m313 -132 c13 -16 12 -17 -3 -4 -10 7 -18
15 -18 17 0 8 8 3 21 -13z"/>
<path d="M822 2828 c-7 -7 -12 -18 -12 -26 0 -7 -4 -11 -9 -8 -5 3 -17 -6 -26
-21 -17 -25 -17 -26 1 -19 15 6 14 2 -5 -18 -14 -14 -21 -29 -18 -33 4 -3 7 0
8 8 0 8 4 6 9 -6 8 -19 9 -19 9 -1 1 25 41 97 66 118 16 14 17 17 5 18 -9 0
-21 -5 -28 -12z"/>
<path d="M763 2645 c0 -22 2 -30 4 -17 2 12 2 30 0 40 -3 9 -5 -1 -4 -23z"/>
<path d="M1272 2640 c0 -19 2 -27 5 -17 2 9 2 25 0 35 -3 9 -5 1 -5 -18z"/>
<path d="M705 2581 c-3 -5 0 -13 6 -16 5 -4 8 -14 4 -24 -5 -12 -4 -13 6 -4 9
9 9 16 1 26 -7 8 -9 17 -5 20 3 4 4 7 0 7 -3 0 -8 -4 -12 -9z"/>
<path d="M1300 2540 c0 -19 3 -21 12 -12 9 9 9 15 0 24 -9 9 -12 7 -12 -12z"/>
<path d="M811 2398 c-1 -23 9 -48 21 -48 7 0 7 4 0 13 -5 6 -12 21 -15 32 -3
15 -5 16 -6 3z"/>
<path d="M838 2405 c-3 -6 3 -28 13 -50 11 -22 16 -30 13 -17 -3 13 0 29 6 37
9 11 9 15 1 15 -6 0 -11 -6 -12 -12 -1 -7 -4 -2 -8 12 -4 14 -9 20 -13 15z"/>
<path d="M1180 2390 c0 -5 5 -10 11 -10 5 0 7 5 4 10 -3 6 -8 10 -11 10 -2 0
-4 -4 -4 -10z"/>
<path d="M1216 2377 c3 -10 9 -15 12 -12 3 3 0 11 -7 18 -10 9 -11 8 -5 -6z"/>
</g>
</svg>
